<svg viewBox="0 0 24 24" color="#8abbef" stroke-width="2" stroke="currentColor" stroke-linecap="round" stroke-linejoin="round" fill="none" width="32" height="32" xmlns="http://www.w3.org/2000/svg" xmlns:xlink="http://www.w3.org/1999/xlink">
    <circle fill="#264057" cx="15" cy="9" r="4" />
    <line x1="15" x2="15" y1="2" y2="1" />
    <line transform="rotate(120 15 9.071068)" x1="15" x2="15" y1="2" y2="1" />
    <line transform="rotate(-30 15 9.071068)" x1="15" x2="15" y1="2" y2="1" />
    <line transform="rotate(30 15 9.071068)" x1="15" x2="15" y1="2" y2="1" />
    <line transform="rotate(60 15 9.071068)" x1="15" x2="15" y1="2" y2="1" />
    <line transform="rotate(90 15 9)" x1="15" x2="15" y1="2" y2="1" />
    <path fill="#365068" d="M18.5761 16.1582C17.4999 16.6969 16.2854 17 15 17c-4.4183 0-8-3.5817-8-8 0-1.2854 0.3031-2.4999 0.8418-3.5761C4.4493 6.5399 2 9.7339 2 13.5 2 18.1944 5.8056 22 10.5 22c3.7661 0 6.9601-2.4493 8.0761-5.8418z" />
</svg>